<?xml version="1.0" encoding="utf-8"?>
<!-- Generator: Adobe Illustrator 15.1.0, SVG Export Plug-In . SVG Version: 6.00 Build 0)  -->
<!DOCTYPE svg PUBLIC "-//W3C//DTD SVG 1.1//EN" "http://www.w3.org/Graphics/SVG/1.1/DTD/svg11.dtd">
<svg version="1.1" id="Layer_1" xmlns="http://www.w3.org/2000/svg" xmlns:xlink="http://www.w3.org/1999/xlink" x="0px" y="0px"
	 width="595.28px" height="544px" viewBox="0 0 595.28 544" enable-background="new 0 0 595.28 544" xml:space="preserve">
<rect fill="#FFFFFF" width="595.83" height="544"/>
<polygon fill="#00539F" points="168.875,192.184 168.875,149.567 57.644,149.567 57.644,192.184 83.163,192.184 83.163,283.344 
	57.644,283.344 57.644,325.961 168.875,325.961 168.875,283.344 143.356,283.344 143.356,192.184 "/>
<path fill="#00539F" d="M291.625,217.25c-6.875-2-42.25-12.125-48.375-14.125s-11.125-4.875-11.125-8.5s5.625-7.5,17-7.5
	c35.875,0,53.109,22.125,53.109,22.125s1.942,2.587,2.593,3.515h34.612v-60.363h-37.157v10.982
	c-2.838-1.96-23.79-15.634-56.282-15.634c-42.875,0-66.75,22.25-66.75,55.5s30.125,47,38.5,50.5s41.125,12.75,55.125,17.125
	s19.125,7.5,19.125,9.75s-6.125,8.125-23.625,8.125c-30.483,0-46.181-17.976-48.936-21.457v-0.027
	c-0.876-1.174-1.904-2.563-2.253-3.086c-0.404-0.605-1.341-1.948-1.991-2.876h-34.612v64.461h38.856v-13.461
	c4.521,3.009,27.664,17.446,55.436,17.446c31,0,70.5-13.5,70.5-55.625S298.5,219.25,291.625,217.25z"/>
<path fill="#00539F" d="M444.035,147.157c-51.678,0-94.062,25.838-94.062,91.795s46.011,90.662,94.288,90.662
	s93.835-24.479,93.835-89.981S492.54,147.157,444.035,147.157z M444.489,285.643c-17.68,0-29.013-4.08-29.013-46.917
	c0-42.838,8.387-47.371,29.692-47.371c12.919,0,28.559,0.906,28.559,46.011S462.169,285.643,444.489,285.643z"/>
<g>
	<path fill="#00539F" d="M131.76,130.114c11.617-17.154,25.903-32.36,42.28-44.988c6.622,4.896,13.661,9.337,21.061,13.295
		c-12.398,13.82-23.506,29.131-25.346,31.693h7.439c4.465-6.018,13.701-18.124,23.44-28.857
		c10.645,5.233,21.958,9.513,33.762,12.773c-3.142,6.666-5.517,12.495-6.911,16.084h6.463c1.485-3.696,3.661-8.851,6.376-14.547
		c15.058,3.679,30.836,5.741,46.977,6.055v8.493h6v-8.464c16.023-0.117,31.714-1.943,46.719-5.374
		c2.558,5.411,4.617,10.296,6.04,13.837h6.463c-1.34-3.447-3.582-8.957-6.543-15.296c12.015-3.126,23.544-7.294,34.402-12.445
		c9.366,10.448,18.122,21.932,22.433,27.741h7.438c-1.783-2.483-12.316-17.006-24.285-30.505
		c8.229-4.253,16.031-9.092,23.324-14.483c16.377,12.628,30.664,27.834,42.28,44.988h7.217
		c-35.488-54.771-97.142-91.087-167.124-91.087s-131.636,36.316-167.124,91.087H131.76z M237.073,108.543
		c-11.228-3.033-22.001-7.009-32.157-11.873c1.38-1.434,2.759-2.823,4.122-4.138c13.907-13.411,36.781-28.137,41.795-31.307
		c4.069,2.235,8.509,4.125,13.232,5.625c-3.668,4.81-10.87,14.574-18.713,26.959C242.299,98.629,239.518,103.695,237.073,108.543z
		 M287.301,115.62c-15.196-0.304-30.054-2.196-44.256-5.564c2.221-4.342,4.699-8.81,7.376-13.036
		c9.036-14.267,17.188-24.979,19.904-28.464c5.419,1.273,11.114,2.078,16.976,2.341V115.62z M293.301,115.65V70.965
		c5.783-0.098,11.441-0.71,16.856-1.799c3.104,4.015,10.872,14.339,19.431,27.854c2.816,4.447,5.413,9.161,7.722,13.716
		C323.158,113.866,308.386,115.538,293.301,115.65z M343.325,109.315c-2.537-5.08-5.454-10.43-8.669-15.506
		c-7.438-11.746-14.302-21.136-18.119-26.178c5.023-1.411,9.765-3.245,14.119-5.464c7.039,4.512,27.483,17.992,40.314,30.365
		c1.703,1.643,3.429,3.398,5.153,5.218C365.755,102.537,354.765,106.412,343.325,109.315z M404.268,81.375
		c-7.039,5.081-14.56,9.633-22.479,13.635c-2.213-2.374-4.445-4.667-6.654-6.797c-12.001-11.573-29.87-23.714-38.625-29.415
		c2.974-1.928,5.694-4.06,8.119-6.381C366.3,58.609,386.419,68.51,404.268,81.375z M291.667,45.027
		c15.844,0,31.243,1.933,45.988,5.551c-11.19,9.089-27.957,14.421-45.988,14.421c-18.113,0-34.834-5.315-46.009-14.416
		C260.408,46.962,275.814,45.027,291.667,45.027z M238.702,52.417c1.974,1.892,4.135,3.662,6.476,5.294
		c-7.932,5.104-27.469,18.125-40.304,30.501c-1.848,1.782-3.711,3.68-5.567,5.642c-7.099-3.717-13.869-7.88-20.24-12.479
		C196.913,68.51,217.031,58.61,238.702,52.417z"/>
	<path fill="#00539F" d="M451.582,345.947c-11.37,16.793-25.3,31.717-41.243,44.185c-7.593-5.71-15.743-10.814-24.362-15.272
		c10.383-11.712,19.686-24.194,23.13-28.912h-7.472c-4.606,6.15-12.669,16.583-21.245,26.15
		c-10.858-5.153-22.386-9.324-34.403-12.449c2.541-5.441,4.548-10.263,5.914-13.701h-6.482c-1.374,3.352-3.201,7.605-5.396,12.248
		c-14.996-3.426-30.685-5.251-46.721-5.367v-6.881h-6v6.908c-16.154,0.313-31.931,2.373-46.98,6.047
		c-2.344-4.917-4.287-9.434-5.73-12.955h-6.483c1.431,3.604,3.567,8.728,6.283,14.49c-11.807,3.261-23.124,7.535-33.768,12.771
		c-8.944-9.859-17.461-20.872-22.248-27.262h-7.472c3.558,4.875,13.385,18.057,24.197,30.107
		c-7.787,4.17-15.181,8.869-22.106,14.077c-15.944-12.468-29.874-27.392-41.243-44.185h-7.206
		c35.489,54.771,97.141,91.087,167.122,91.087c69.98,0,131.633-36.315,167.122-91.087H451.582z M343.328,365.155
		c11.444,2.902,22.434,6.776,32.803,11.565c-1.727,1.822-3.454,3.58-5.16,5.226c-12.791,12.333-33.17,25.782-40.262,30.33
		c-4.354-2.228-9.102-4.062-14.141-5.473c3.824-5.051,10.67-14.423,18.088-26.136C337.873,375.59,340.79,370.237,343.328,365.155z
		 M293.301,358.828c15.097,0.112,29.869,1.779,44.012,4.905c-2.31,4.558-4.907,9.273-7.726,13.724
		c-8.547,13.496-16.303,23.809-19.416,27.836c-5.4-1.076-11.058-1.683-16.871-1.779V358.828z M287.301,358.858v44.718
		c-5.884,0.261-11.585,1.056-16.997,2.32c-2.735-3.511-10.861-14.193-19.883-28.439c-2.679-4.229-5.159-8.7-7.381-13.046
		C257.234,361.047,272.092,359.161,287.301,358.858z M237.07,365.929c2.446,4.851,5.229,9.917,8.282,14.739
		c7.837,12.375,15.034,22.133,18.705,26.947c-4.73,1.499-9.165,3.391-13.232,5.632c-5.033-3.184-27.887-17.899-41.786-31.301
		c-1.365-1.316-2.744-2.707-4.126-4.142C215.067,372.938,225.839,368.961,237.07,365.929z M177.98,393.893
		c6.687-4.916,13.817-9.348,21.318-13.277c1.858,1.964,3.725,3.865,5.575,5.649c12.832,12.373,32.363,25.391,40.298,30.497
		c-2.827,1.979-5.404,4.155-7.694,6.517C215.835,416.937,195.76,406.897,177.98,393.893z M291.667,431.034
		c-16.363,0-32.255-2.055-47.437-5.906c11.086-9.742,28.69-15.649,47.437-15.649c18.724,0,36.345,5.911,47.432,15.65
		C323.918,428.98,308.028,431.034,291.667,431.034z M345.853,423.279c-2.722-2.805-5.833-5.363-9.304-7.626
		c8.77-5.711,26.603-17.833,38.586-29.389c2.21-2.131,4.442-4.425,6.657-6.801c8.323,4.21,16.211,9.026,23.561,14.429
		C387.572,406.898,367.496,416.938,345.853,423.279z"/>
</g>
<g>
	<path fill="#00539F" d="M69.088,500.668c0.267,4.964,2.182,8.395,5.747,10.293c1.832,1,3.897,1.499,6.196,1.499
		c4.297,0,7.961-1.79,10.993-5.371c3.031-3.581,5.18-10.852,6.446-21.811c-1.999,3.164-4.472,5.388-7.42,6.67
		c-2.948,1.283-6.121,1.924-9.519,1.924c-6.896,0-12.351-2.146-16.365-6.438c-4.015-4.293-6.021-9.817-6.021-16.573
		c0-6.488,1.982-12.196,5.946-17.121s9.811-7.388,17.539-7.388c10.426,0,17.622,4.694,21.586,14.082
		c2.199,5.16,3.298,11.618,3.298,19.375c0,8.755-1.316,16.511-3.947,23.27c-4.365,11.252-11.76,16.878-22.186,16.878
		c-6.996,0-12.31-1.833-15.94-5.497c-3.631-3.664-5.447-8.261-5.447-13.791H69.088z M92.499,482.46
		c2.948-2.345,4.422-6.444,4.422-12.298c0-5.255-1.324-9.171-3.973-11.749c-2.648-2.577-6.021-3.866-10.118-3.866
		c-4.397,0-7.887,1.472-10.469,4.415c-2.582,2.943-3.873,6.877-3.873,11.799c0,4.656,1.132,8.357,3.398,11.101
		c2.265,2.744,5.879,4.115,10.843,4.115C86.294,485.977,89.551,484.805,92.499,482.46z"/>
	<path fill="#00539F" d="M160.181,457.895c3.198,5.896,4.797,13.975,4.797,24.235c0,9.727-1.449,17.771-4.347,24.135
		c-4.197,9.127-11.061,13.691-20.587,13.691c-8.595,0-14.991-3.73-19.188-11.193c-3.498-6.229-5.247-14.591-5.247-25.084
		c0-8.128,1.05-15.107,3.148-20.938c3.93-10.859,11.043-16.289,21.336-16.289C149.354,446.452,156.05,450.267,160.181,457.895z
		 M151.13,505.564c2.769-4.13,4.154-11.825,4.154-23.085c0-8.128-1.002-14.816-3.003-20.062c-2.002-5.247-5.89-7.87-11.662-7.87
		c-5.306,0-9.185,2.49-11.637,7.471c-2.453,4.98-3.679,12.316-3.679,22.011c0,7.295,0.784,13.159,2.352,17.589
		c2.402,6.763,6.507,10.144,12.312,10.144C144.639,511.761,148.359,509.695,151.13,505.564z"/>
	<path fill="#00539F" d="M217.095,457.895c3.198,5.896,4.797,13.975,4.797,24.235c0,9.727-1.449,17.771-4.347,24.135
		c-4.197,9.127-11.061,13.691-20.587,13.691c-8.595,0-14.991-3.73-19.188-11.193c-3.498-6.229-5.247-14.591-5.247-25.084
		c0-8.128,1.05-15.107,3.148-20.938c3.93-10.859,11.043-16.289,21.336-16.289C206.269,446.452,212.964,450.267,217.095,457.895z
		 M208.044,505.564c2.769-4.13,4.154-11.825,4.154-23.085c0-8.128-1.002-14.816-3.003-20.062c-2.002-5.247-5.89-7.87-11.662-7.87
		c-5.306,0-9.185,2.49-11.637,7.471c-2.453,4.98-3.679,12.316-3.679,22.011c0,7.295,0.784,13.159,2.352,17.589
		c2.402,6.763,6.507,10.144,12.312,10.144C201.553,511.761,205.273,509.695,208.044,505.564z"/>
	<path fill="#00539F" d="M236.033,467.339v-6.896c6.496-0.633,11.026-1.69,13.591-3.173c2.565-1.482,4.48-4.988,5.747-10.519h7.095
		v71.255h-9.594v-50.668H236.033z"/>
	<path fill="#00539F" d="M294.497,465.19h10.444v10.893h-10.444V465.19z M294.497,507.113h10.444v10.894h-10.444V507.113z"/>
	<path fill="#00539F" d="M318.606,501.917c2.215-4.563,6.537-8.711,12.967-12.442l9.594-5.546c4.298-2.499,7.312-4.633,9.045-6.401
		c2.73-2.771,4.097-5.941,4.097-9.513c0-4.172-1.249-7.485-3.747-9.938c-2.499-2.453-5.83-3.68-9.994-3.68
		c-6.163,0-10.427,2.34-12.792,7.017c-1.266,2.506-1.966,5.98-2.099,10.423h-9.144c0.1-6.229,1.249-11.31,3.447-15.24
		c3.897-6.929,10.776-10.394,20.637-10.394c8.195,0,14.183,2.216,17.964,6.646c3.78,4.431,5.672,9.361,5.672,14.791
		c0,5.729-2.016,10.627-6.046,14.69c-2.333,2.366-6.514,5.23-12.543,8.595l-6.846,3.798c-3.265,1.799-5.829,3.515-7.694,5.146
		c-3.332,2.898-5.431,6.113-6.297,9.644h39.076v8.495h-49.119C315.116,511.845,316.391,506.481,318.606,501.917z"/>
	<path fill="#00539F" d="M416.27,457.895c3.198,5.896,4.797,13.975,4.797,24.235c0,9.727-1.448,17.771-4.347,24.135
		c-4.197,9.127-11.061,13.691-20.587,13.691c-8.595,0-14.991-3.73-19.188-11.193c-3.497-6.229-5.246-14.591-5.246-25.084
		c0-8.128,1.049-15.107,3.147-20.938c3.931-10.859,11.043-16.289,21.337-16.289C405.443,446.452,412.139,450.267,416.27,457.895z
		 M407.219,505.564c2.77-4.13,4.154-11.825,4.154-23.085c0-8.128-1.002-14.816-3.004-20.062c-2.002-5.247-5.889-7.87-11.661-7.87
		c-5.306,0-9.185,2.49-11.637,7.471c-2.454,4.98-3.68,12.316-3.68,22.011c0,7.295,0.784,13.159,2.353,17.589
		c2.402,6.763,6.507,10.144,12.312,10.144C400.729,511.761,404.448,509.695,407.219,505.564z"/>
	<path fill="#00539F" d="M435.208,467.339v-6.896c6.496-0.633,11.025-1.69,13.592-3.173c2.564-1.482,4.479-4.988,5.746-10.519h7.096
		v71.255h-9.595v-50.668H435.208z"/>
	<path fill="#00539F" d="M494.97,499.769c0.6,5.13,2.981,8.678,7.146,10.644c2.132,0.999,4.598,1.499,7.396,1.499
		c5.33,0,9.277-1.699,11.843-5.098c2.564-3.397,3.848-7.161,3.848-11.292c0-4.997-1.524-8.861-4.572-11.593
		s-6.704-4.098-10.968-4.098c-3.099,0-5.755,0.6-7.97,1.799c-2.216,1.199-4.106,2.865-5.672,4.997l-7.795-0.45l5.448-38.525h37.175
		v8.694h-30.431l-3.049,19.888c1.666-1.266,3.248-2.215,4.747-2.849c2.665-1.099,5.747-1.648,9.244-1.648
		c6.562,0,12.126,2.115,16.689,6.346c4.564,4.23,6.846,9.594,6.846,16.09c0,6.763-2.091,12.726-6.271,17.889
		c-4.181,5.164-10.852,7.745-20.013,7.745c-5.83,0-10.985-1.642-15.465-4.922c-4.48-3.28-6.988-8.319-7.521-15.115H494.97z"/>
</g>
</svg>
