<?xml version="1.0" encoding="utf-8"?>
<!-- Generator: Adobe Illustrator 17.1.0, SVG Export Plug-In . SVG Version: 6.00 Build 0)  -->
<!DOCTYPE svg PUBLIC "-//W3C//DTD SVG 1.1//EN" "http://www.w3.org/Graphics/SVG/1.1/DTD/svg11.dtd">
<svg version="1.1" id="Layer_2" xmlns="http://www.w3.org/2000/svg" xmlns:xlink="http://www.w3.org/1999/xlink" x="0px" y="0px"
	 viewBox="0 0 354 99.9" enable-background="new 0 0 354 99.9" xml:space="preserve">
<polygon fill="#253C80" points="40.1,63.8 34.2,63.8 31.9,72.3 60.5,72.3 62.7,63.8 55.8,63.8 62.7,35.5 67.4,35.5 67,40.2 
	76.9,40.2 80.9,25.3 33.3,25.3 29.4,40.2 39.7,40.2 41.8,35.4 46.9,35.4 "/>
<polygon fill="#253C80" points="114.7,25.3 136.8,25.3 107.3,72.3 88.8,72.3 86.2,33.8 82.4,33.8 84.6,25.3 109.1,25.3 106.9,33.8 
	102.7,33.8 102.6,57.9 116.7,33.8 112,33.8 "/>
<path fill="none" stroke="#FFFFFF" stroke-miterlimit="10" d="M139.9,58"/>
<path fill="none" stroke="#FFFFFF" stroke-miterlimit="10" d="M130.5,58"/>
<path fill="none" stroke="#FFFFFF" stroke-miterlimit="10" d="M162.6,39.2"/>
<path fill="#253C80" d="M171.4,39.2c0-4.7,1.5-8.9,3.4-13.2c-8.3-1.5-17.3-2.1-25.5,0c-4.6,1.2-9.4,4.1-12,8.2
	c-3,4.6-2.3,10.5,1.4,14.4c1.9,1.9,4.2,3.2,6.6,4.3c1.9,0.9,5.2,2.3,5.7,4.5c1.4,5.6-7.6,6.1-11.1,5V58h-9.4l-3.6,13.1
	c8.4,2.1,17.2,2.8,25.7,0.9c5.1-1.2,9.7-3.8,13.1-7.9c2.8-3.5,4.4-10,1.4-13.8c-1.7-2.1-3.6-3.7-5.9-5c-2.2-1.3-4.6-2.1-6.6-3.6
	c-2.4-1.8-2.4-4.6,0.2-6.2c2-1.3,5.3-0.7,7.5-0.3l0.4,3.9H171.4z"/>
<path fill="#DC4226" d="M300.4,25.2c-3.9-1.5-7.6-1.4-11.6-0.4c-3.9,1-6.7,3.2-9.8,5.6c-3.1,2.4-6.4,4.8-10,6.4
	c-3.7,1.6-7.9,3.3-11.9,1.7c2.9,0.1,5.6-0.5,8.1-2.1c1.9-1.2,5.2-3.7,5.9-6h-3.3c2.4-2.6,5.4-4.6,8.7-5.8l-1.6-1.9
	c4.4-3,9.2-4.4,14.5-4.6c2.5-0.1,5,0.2,7.3,0.9c2.5,0.7,4.4,1.9,6.2,3.7L300.4,25.2z"/>
<path fill="#DC4226" d="M237.1,35.7c-1.4,0-2.6,0.1-4,0.5c-1.3,0.4-2.5,0.9-3.8,1.4c-2.4,1-4.7,2.3-7,3.5c-1,0.5-2.2,1.1-3.3,1.3
	c-1.2,0.2-2.8,0.2-3.9-0.3c-1.2-0.6-2.2-1.2-3.2-2.1c-1-0.9-2-1.8-3-2.5c-1.1-0.7-2.2-1.2-3.3-1.9c0.5,0,3.1-0.1,2.4-1.2
	c-0.6-0.9-2-1.3-3.1-1.5c-2.5-0.5-5-0.5-7.5-0.5c2.1-1.8,4.4-2.7,7.2-2.7c2.6,0,4.7,1.2,6.9,2.5c1.1,0.7,2.4,1.9,3.5,2.6
	c1.1,0.7,2.3,1.1,3.5,1.5c2.3,0.8,5.2,0.4,7.5-0.4c1.9-0.7,3.6-1.5,5.7-1.5C233.6,34.1,235.4,34.6,237.1,35.7z"/>
<path fill="#DC4226" d="M217.5,55.8c4.1-0.2,7.5-4.2,9.8-7.2c2.5-3.2,4.2-8,8.1-9.8c5.8-2.6,11.9-0.4,17.2,2.4c5,2.5,12,2.1,17-0.1
	c5.5-2.4,9.7-6.5,14.4-10c4.4-3.3,10.1-5.6,16.9-3.8l3-3.6l0.6,5.9l10.6,10.7l-2.1,2.5h-6.8v-1.7c-2-1.4-4.1-2.4-6.6-2.1
	c-2.6,0.3-5.4,1.5-5,4.6c0.3,2.1,3.3,4,4.8,5.1c2.1,1.4,4.3,2.7,6.5,4.1c4.5,2.8,8.8,5.9,13,9.2c3.9,3.1,7.9,6.3,10.9,10.2l-9.2-1.8
	c1.7-1.2-0.3-2.5-1.4-3.4c-1.4-1.1-2.8-2-4.4-2.9c-3.1-1.7-6.4-2.6-9.8-3.4c-6.5-1.6-14.9-2.6-20.6,1.5c-0.2,0.1-0.4,0.3-0.6,0.4
	l-3.2-2.7c-10.3,3.5-21.8,2.6-31.3-2.6c-3.9,2.7-8.4,3.3-12.9,3.8c-4.3,0.5-8.8,0.2-13.2-0.2c-10.5,8.7-24.8,13.8-38.2,9.2l9-2.3v2
	C203.7,69.8,211.8,63,217.5,55.8z"/>
</svg>
